#!OML:ASF F:\VICON\USERDATA\INSTALL\rory3\rory3.ASF
:FULLY-SPECIFIED
:DEGREES
599
root 5.19332 16.9642 1.94363 7.62764 -14.2665 -7.44055
lowerback 21.6594 -0.145672 3.70549
upperback 5.60258 0.664957 1.63358
thorax -5.95216 0.261668 -0.52242
lowerneck -15.4895 -0.559808 -1.6928
upperneck 37.8358 0.127735 -1.56314
head 16.0821 -0.479361 -0.374316
rclavicle -1.98785e-015 -3.57812e-014
rhumerus -35.0695 -7.95347 -17.0754
rradius 34.1422
rwrist 5.24406
rhand -17.6541 -46.4308
rfingers 7.12502
rthumb 8.60417 -76.2354
lclavicle -1.98785e-015 -3.57812e-014
lhumerus -35.8573 8.46711 11.5443
lradius 27.5536
lwrist 15.7326
lhand -22.9971 -30.47
lfingers 7.12502
lthumb 3.44591 -0.518102
rfemur -101.256 0.811268 27.2924
rtibia 96.3392
rfoot 48.5336 0.0185103
rtoes -1.65888
lfemur -28.8235 5.13118 -23.3429
ltibia 41.587
lfoot -17.7526 9.95742
ltoes 15.3129
600
root 5.19262 16.96 1.93768 7.61555 -14.3708 -7.29662
lowerback 21.753 -0.0938968 3.51312
upperback 5.56554 0.694263 1.60181
thorax -6.04267 0.27589 -0.455269
lowerneck -15.5591 -0.532583 -1.66028
upperneck 38.0188 0.190269 -1.63845
head 16.1941 -0.461876 -0.404655
rclavicle -7.35503e-015 4.01545e-014
rhumerus -35.0038 -8.01364 -17.0041
rradius 34.1016
rwrist 5.49577
rhand -17.3032 -46.4422
rfingers 7.12502
rthumb 8.94273 -76.2327
lclavicle -7.35503e-015 4.01545e-014
lhumerus -35.6916 7.34375 12.0476
lradius 26.5045
lwrist 14.7819
lhand -25.2321 -37.5764
lfingers 7.12502
lthumb 1.28741 -7.60051
rfemur -101.344 0.902033 27.1525
rtibia 96.3531
rfoot 48.5816 0.27302
rtoes -1.75481
lfemur -28.8651 5.2767 -23.5193
ltibia 41.6038
lfoot -17.7482 9.98689
ltoes 14.9208
601
root 5.19204 16.9542 1.93201 7.63421 -14.4529 -7.22054
lowerback 21.8323 -0.0711744 3.369
upperback 5.52634 0.697113 1.59429
thorax -6.12856 0.277087 -0.382411
lowerneck -15.5325 -0.461293 -1.53553
upperneck 38.0825 0.345638 -1.86994
head 16.2223 -0.413236 -0.501129
rclavicle -1.61016e-014 4.6118e-014
rhumerus -34.9224 -7.9365 -17.0048
rradius 34.1384
rwrist 5.52657
rhand -16.9814 -46.6049
rfingers 7.12502
rthumb 9.25326 -76.3819
lclavicle -1.61016e-014 4.6118e-014
lhumerus -35.5629 7.53441 11.7838
lradius 26.8778
lwrist 15.5383
lhand -23.8339 -35.311
lfingers 7.12502
lthumb 2.63776 -5.34754
rfemur -101.46 0.974723 27.0759
rtibia 96.3731
rfoot 48.6163 0.33357
rtoes -2.01013
lfemur -28.9192 5.42547 -23.6284
ltibia 41.6378
lfoot -17.7116 9.99618
ltoes 14.5985
602
root 5.19313 16.9559 1.93944 7.56222 -14.4704 -7.12068
lowerback 21.8111 -0.0842234 3.25684
upperback 5.5214 0.654357 1.5823
thorax -6.12575 0.257658 -0.320175
lowerneck -15.3755 -0.421951 -1.46902
upperneck 38.0409 0.437169 -2.02574
head 16.1636 -0.387159 -0.563355
rclavicle -3.77691e-015 -1.82882e-014
rhumerus -34.8943 -7.67461 -17.0389
rradius 34.242
rwrist 5.32837
rhand -16.931 -46.6697
rfingers 7.12502
rthumb 9.30189 -76.4444
lclavicle -3.77691e-015 -1.82882e-014
lhumerus -35.582 7.63747 11.6486
lradius 26.972
lwrist 15.5658
lhand -23.664 -33.0239
lfingers 7.12502
lthumb 2.80188 -3.06259
rfemur -101.433 0.896663 27.0063
rtibia 96.4733
rfoot 48.4948 0.626221
rtoes -2.73524
lfemur -28.8341 5.53895 -23.7514
ltibia 41.6554
lfoot -17.7549 9.83564
ltoes 14.8333
603
root 5.18949 16.9528 1.92676 7.59144 -14.4304 -7.19872
lowerback 22.0514 -0.106345 3.18525
upperback 5.43151 0.628126 1.63116
thorax -6.35061 0.242214 -0.220127
lowerneck -15.4403 -0.386436 -1.35939
upperneck 38.1957 0.495363 -2.12776
head 16.2609 -0.364445 -0.620324
rclavicle 3.57812e-015 1.07344e-014
rhumerus -34.7777 -7.54813 -17.0667
rradius 34.2281
rwrist 5.45733
rhand -17.0561 -46.2251
rfingers 7.12502
rthumb 9.18122 -76.0052
lclavicle 3.57812e-015 1.07344e-014
lhumerus -35.6728 7.54354 11.6415
lradius 26.9942
lwrist 15.2975
lhand -24.6675 -32.1499
lfingers 7.12502
lthumb 1.83274 -2.17805
rfemur -101.432 0.978535 27.0849
rtibia 96.444
rfoot 48.4262 0.729676
rtoes -3.47107
lfemur -28.9882 5.6741 -23.6439
ltibia 41.7251
lfoot -17.6717 9.58068
ltoes 15.0742
604
root 5.19085 16.9522 1.92193 7.59261 -14.4072 -7.26616
lowerback 22.1148 -0.150418 3.23689
upperback 5.45878 0.582732 1.61628
thorax -6.35392 0.219594 -0.253556
lowerneck -15.5585 -0.35132 -1.1813
upperneck 38.2103 0.541716 -2.2571
head 16.2987 -0.338694 -0.701604
rclavicle 1.66979e-014 6.75868e-015
rhumerus -34.6045 -7.5966 -17.1364
rradius 34.1186
rwrist 5.68855
rhand -17.7455 -45.5494
rfingers 7.12502
rthumb 8.51598 -75.3577
lclavicle 1.66979e-014 6.75868e-015
lhumerus -35.8317 7.46816 11.6217
lradius 27.145
lwrist 15.1526
lhand -25.3576 -31.9583
lfingers 7.12502
lthumb 1.16618 -1.9817
rfemur -101.382 0.995455 27.1496
rtibia 96.4215
rfoot 48.4017 0.700769
rtoes -4.02669
lfemur -29.0285 5.75666 -23.5816
ltibia 41.7867
lfoot -17.672 9.53424
ltoes 14.9297
605
root 5.19537 16.9527 1.92109 7.61698 -14.389 -7.333
lowerback 22.0671 -0.183329 3.40032
upperback 5.50191 0.569787 1.58698
thorax -6.27993 0.212667 -0.374833
lowerneck -15.3162 -0.373567 -1.25153
upperneck 37.8415 0.488036 -2.17072
head 16.047 -0.353524 -0.652924
rclavicle -3.06128e-014 -2.78299e-015
rhumerus -34.5464 -7.58699 -17.1877
rradius 34.0736
rwrist 5.6907
rhand -18.3747 -45.4149
rfingers 7.12502
rthumb 7.90866 -75.247
lclavicle -3.06128e-014 -2.78299e-015
lhumerus -35.8755 7.30979 11.6638
lradius 27.3497
lwrist 15.2361
lhand -25.5126 -31.958
lfingers 7.12502
lthumb 1.01646 -1.98071
rfemur -101.338 0.962825 27.2326
rtibia 96.3802
rfoot 48.4194 0.650557
rtoes -4.76752
lfemur -29.0742 5.75729 -23.5325
ltibia 41.8687
lfoot -17.7705 9.58028
ltoes 14.7913
606
root 5.1979 16.9516 1.91759 7.64861 -14.3599 -7.43812
lowerback 22.1457 -0.217667 3.54882
upperback 5.45413 0.565017 1.60192
thorax -6.37099 0.207101 -0.441993
lowerneck -14.8455 -0.402343 -1.62704
upperneck 37.4402 0.393339 -1.76582
head 15.7259 -0.383799 -0.419213
rclavicle -1.03368e-014 1.59028e-015
rhumerus -34.5238 -7.48296 -17.2042
rradius 34.1015
rwrist 5.60561
rhand -18.6413 -45.5983
rfingers 7.12502
rthumb 7.65134 -75.4399
lclavicle -1.03368e-014 1.59028e-015
lhumerus -35.8658 7.14353 11.6684
lradius 27.4484
lwrist 15.3806
lhand -25.3844 -31.6915
lfingers 7.12502
lthumb 1.14031 -1.71479
rfemur -101.272 0.963868 27.358
rtibia 96.2883
rfoot 48.3647 0.876722
rtoes -5.57437
lfemur -29.1272 5.75334 -23.4262
ltibia 41.9264
lfoot -17.854 9.52855
ltoes 14.7139
607
root 5.19886 16.9505 1.91421 7.65121 -14.3384 -7.52645
lowerback 22.2898 -0.2465 3.62855
upperback 5.38075 0.55734 1.62345
thorax -6.52514 0.199666 -0.462092
lowerneck -14.6228 -0.428263 -1.96115
upperneck 37.3702 0.300367 -1.36787
head 15.6354 -0.413767 -0.203639
rclavicle -1.53064e-014 8.34896e-015
rhumerus -34.5946 -7.22178 -17.2459
rradius 34.2942
rwrist 5.45208
rhand -18.7764 -45.6558
rfingers 7.12502
rthumb 7.52095 -75.5021
lclavicle -1.53064e-014 8.34896e-015
lhumerus -35.8809 6.99323 11.6316
lradius 27.4571
lwrist 15.4461
lhand -26.0219 -29.7962
lfingers 7.12502
lthumb 0.524639 0.182866
rfemur -101.17 0.987876 27.4632
rtibia 96.1549
rfoot 48.3075 1.53304
rtoes -6.17506
lfemur -29.1544 5.76527 -23.327
ltibia 41.9654
lfoot -17.8706 9.4704
ltoes 14.7795
608
root 5.20008 16.9516 1.91649 7.64332 -14.2884 -7.58223
lowerback 22.285 -0.270769 3.71532
upperback 5.37812 0.546631 1.64047
thorax -6.52493 0.193485 -0.490127
lowerneck -14.6666 -0.479606 -2.11726
upperneck 37.4676 0.214304 -1.20813
head 15.6947 -0.451101 -0.123359
rclavicle 3.18055e-014 -3.06128e-014
rhumerus -34.6772 -7.07562 -17.1986
rradius 34.3956
rwrist 5.37575
rhand -18.7817 -45.4345
rfingers 7.12502
rthumb 7.5159 -75.281
lclavicle 3.18055e-014 -3.06128e-014
lhumerus -35.9067 7.26639 11.384
lradius 27.123
lwrist 15.3211
lhand -26.7595 -30.7969
lfingers 7.12502
lthumb -0.187813 -0.817231
rfemur -101.088 0.942558 27.5464
rtibia 96.0674
rfoot 48.3048 1.86865
rtoes -6.21355
lfemur -29.1313 5.7626 -23.2684
ltibia 41.9851
lfoot -17.8513 9.50061
ltoes 15.0062
609
root 5.20192 16.9528 1.91859 7.64549 -14.2012 -7.59728
lowerback 22.222 -0.296517 3.80967
upperback 5.3995 0.530331 1.63875
thorax -6.46816 0.185656 -0.541272
lowerneck -14.9841 -0.501008 -1.97285
upperneck 37.7855 0.209292 -1.36441
head 15.9331 -0.458916 -0.221571
rclavicle 3.10104e-014 -1.51076e-014
rhumerus -34.6743 -7.28877 -17.0544
rradius 34.2198
rwrist 5.50871
rhand -18.5928 -45.4714
rfingers 7.12502
rthumb 7.69821 -75.3113
lclavicle 3.10104e-014 -1.51076e-014
lhumerus -35.8216 6.98326 11.6021
lradius 27.5056
lwrist 15.3342
lhand -28.1959 -25.8097
lfingers 7.12502
lthumb -1.57507 4.16424
rfemur -101.059 0.836691 27.586
rtibia 96.0237
rfoot 48.3162 1.60372
rtoes -5.32875
lfemur -29.1054 5.72237 -23.2626
ltibia 41.9856
lfoot -17.8026 9.54979
ltoes 15.0691
610
root 5.20528 16.9508 1.91953 7.63477 -14.1535 -7.48387
lowerback 22.1838 -0.309995 3.80559
upperback 5.41074 0.505013 1.5759
thorax -6.43639 0.174189 -0.600185
lowerneck -15.9607 -0.432421 -1.35049
upperneck 38.7756 0.382363 -1.97581
head 16.6949 -0.39722 -0.588422
rclavicle -1.96797e-014 2.78299e-015
rhumerus -34.6977 -7.40521 -17.0546
rradius 34.2765
rwrist 5.45997
rhand -18.1457 -46.2216
rfingers 7.12502
rthumb 8.12976 -76.0453
lclavicle -1.96797e-014 2.78299e-015
lhumerus -35.6522 7.03486 11.5648
lradius 27.3732
lwrist 15.3359
lhand -28.1188 -26.267
lfingers 7.12502
lthumb -1.50068 3.70747
rfemur -101.089 0.72147 27.4842
rtibia 96.0211
rfoot 48.2989 1.41455
rtoes -4.54606
lfemur -29.0979 5.65062 -23.4049
ltibia 41.9605
lfoot -17.8368 9.53396
ltoes 14.8754
611
root 5.20691 16.9469 1.91988 7.63006 -14.1365 -7.34184
lowerback 22.0963 -0.321873 3.71598
upperback 5.45569 0.45845 1.50841
thorax -6.34413 0.154609 -0.609704
lowerneck -15.1664 -0.451635 -1.73907
upperneck 37.846 0.26085 -1.48573
head 16.0081 -0.421975 -0.308157
rclavicle -6.26172e-014 3.77691e-014
rhumerus -34.6817 -7.35866 -17.1412
rradius 34.4957
rwrist 5.25815
rhand -17.7926 -46.4877
rfingers 7.12502
rthumb 8.47053 -76.2979
lclavicle -6.26172e-014 3.77691e-014
lhumerus -35.5858 7.18289 11.4578
lradius 27.2677
lwrist 15.3615
lhand -28.0182 -27.4102
lfingers 7.12502
lthumb -1.40353 2.56495
rfemur -101.154 0.65842 27.3422
rtibia 96.0595
rfoot 48.2922 1.47851
rtoes -4.81942
lfemur -29.1202 5.58692 -23.5626
ltibia 41.9248
lfoot -17.8911 9.48805
ltoes 14.7736
